<svg width="0" height="0" class="hidden">
  <symbol fill="none" xmlns="http://www.w3.org/2000/svg" viewBox="0 0 23 28" id="bx_bx-map">
    <g clip-path="url(#clip0_20_1810)">
      <path d="M11.4999 17.0859C14.4553 17.0859 16.8588 14.6893 16.8588 11.7422C16.8588 8.79511 14.4553 6.39844 11.4999 6.39844C8.54438 6.39844 6.14088 8.79511 6.14088 11.7422C6.14088 14.6893 8.54438 17.0859 11.4999 17.0859ZM11.4999 9.07031C12.9776 9.07031 14.1793 10.2686 14.1793 11.7422C14.1793 13.2157 12.9776 14.4141 11.4999 14.4141C10.0221 14.4141 8.82037 13.2157 8.82037 11.7422C8.82037 10.2686 10.0221 9.07031 11.4999 9.07031Z" fill="#FF5722"></path>
      <path d="M10.4412 27.525C10.6679 27.6864 10.9396 27.7732 11.2182 27.7732C11.4969 27.7732 11.7685 27.6864 11.9953 27.525C12.4026 27.2377 21.975 20.3456 21.9362 11.7422C21.9362 5.84937 17.1278 1.05469 11.2182 1.05469C5.30861 1.05469 0.500271 5.84937 0.500271 11.7355C0.461418 20.3456 10.0339 27.2377 10.4412 27.525ZM11.2182 3.72656C15.6514 3.72656 19.2567 7.32157 19.2567 11.7489C19.2848 17.6778 13.3779 23.0015 11.2182 24.7475C9.05989 23.0001 3.15162 17.6751 3.17976 11.7422C3.17976 7.32157 6.78501 3.72656 11.2182 3.72656Z" fill="#FF5722"></path>
    </g>
    <defs>
      <clipPath id="clip0_20_1810">
        <rect width="22" height="27" fill="white" transform="translate(0.5 0.914062)"></rect>
      </clipPath>
    </defs>
  </symbol>
  <symbol xmlns="http://www.w3.org/2000/svg" viewBox="0 0 11 20" id="facebook">
    <path fill="#ababab" fill-rule="nonzero" d="M6.393 6.875v-2.5c0-.69.56-1.25 1.25-1.25h1.25V0h-2.5a3.75 3.75 0 0 0-3.75 3.75v3.125h-2.5V10h2.5v10h3.75V10h2.5l1.25-3.125h-3.75z"></path>
  </symbol>
  <symbol fill="none" xmlns="http://www.w3.org/2000/svg" viewBox="0 0 33 33" id="FB">
    <path d="M31.2103 0.582031H1.75121C1.04275 0.582031 0.470383 1.1544 0.470383 1.86286V31.322C0.470383 32.0304 1.04275 32.6028 1.75121 32.6028H31.2103C31.9188 32.6028 32.4912 32.0304 32.4912 31.322V1.86286C32.4912 1.1544 31.9188 0.582031 31.2103 0.582031ZM27.5119 9.9281H24.9543C22.949 9.9281 22.5607 10.8807 22.5607 12.2816V15.3676H27.3478L26.7234 20.1988H22.5607V32.6028H17.5695V20.2028H13.3948V15.3676H17.5695V11.8053C17.5695 7.67063 20.0951 5.41717 23.7855 5.41717C25.5547 5.41717 27.0716 5.54925 27.5159 5.60929V9.9281H27.5119Z" fill="#FF5722"></path>
  </symbol>
  <symbol xmlns="http://www.w3.org/2000/svg" viewBox="0 0 21 20" id="instagram">
    <path fill="#ababab" fill-rule="nonzero" d="M14.464 0a6.25 6.25 0 0 1 6.25 6.25v7.5a6.25 6.25 0 0 1-6.25 6.25h-7.5a6.25 6.25 0 0 1-6.25-6.25v-7.5A6.25 6.25 0 0 1 6.964 0h7.5zm4.375 13.75v-7.5a4.38 4.38 0 0 0-4.375-4.375h-7.5A4.38 4.38 0 0 0 2.59 6.25v7.5a4.38 4.38 0 0 0 4.375 4.375h7.5a4.38 4.38 0 0 0 4.375-4.375zM10.714 5a5 5 0 1 1 0 10 5 5 0 0 1 0-10zm0 8.125A3.13 3.13 0 0 0 13.84 10a3.129 3.129 0 0 0-3.125-3.125A3.129 3.129 0 0 0 7.59 10a3.13 3.13 0 0 0 3.125 3.125zm5.375-7.834a.666.666 0 1 1 0-1.332.666.666 0 0 1 0 1.332z"></path>
  </symbol>
  <symbol fill="none" xmlns="http://www.w3.org/2000/svg" viewBox="0 0 33 33" id="LD">
    <path d="M31.1981 0.582031H1.73898C1.03052 0.582031 0.458145 1.1544 0.458145 1.86286V31.322C0.458145 32.0304 1.03052 32.6028 1.73898 32.6028H31.1981C31.9066 32.6028 32.4789 32.0304 32.4789 31.322V1.86286C32.4789 1.1544 31.9066 0.582031 31.1981 0.582031ZM9.95631 27.8677H5.20523V12.5858H9.95631V27.8677ZM7.58277 10.4965C7.03812 10.4965 6.5057 10.335 6.05285 10.0324C5.59999 9.72978 5.24703 9.29969 5.0386 8.79651C4.83017 8.29332 4.77564 7.73962 4.88189 7.20544C4.98815 6.67126 5.25042 6.18058 5.63555 5.79546C6.02067 5.41033 6.51135 5.14806 7.04553 5.0418C7.57971 4.93555 8.13341 4.99008 8.6366 5.19851C9.13978 5.40694 9.56987 5.7599 9.87246 6.21276C10.175 6.66561 10.3366 7.19803 10.3366 7.74268C10.3326 9.26366 9.09975 10.4965 7.58277 10.4965ZM27.7439 27.8677H22.9968V20.4349C22.9968 18.6618 22.9648 16.3843 20.5272 16.3843C18.0576 16.3843 17.6773 18.3135 17.6773 20.3068V27.8677H12.9342V12.5858H17.4892V14.6752H17.5532C18.1856 13.4744 19.7347 12.2056 22.0482 12.2056C26.8593 12.2056 27.7439 15.3716 27.7439 19.4863V27.8677Z" fill="#FF5722"></path>
  </symbol>
  <symbol xmlns="http://www.w3.org/2000/svg" viewBox="0 0 41.21 37.46" id="linkedin">
    <defs></defs>
    <title>Asset 25</title>
    <g id="Layer_2">
      <g id="Layer_1-2">
        <g id="LinkedIn">
          <rect x="1.04" y="12.01" width="8.03" height="25.45"></rect>
          <path d="M31,11.77c-4.6,0-7.48,2.49-8,4.24V12H14c.12,2.12,0,25.45,0,25.45h9V23.69a5.8,5.8,0,0,1,.2-2.08,4.6,4.6,0,0,1,4.35-3.12c3.13,0,4.56,2.35,4.56,5.8V37.46h9.11V23.31C41.21,15.43,36.73,11.77,31,11.77Z"></path>
          <path d="M4.91,0C1.94,0,0,1.9,0,4.42S1.89,8.83,4.79,8.83h.06c3,0,4.9-2,4.9-4.42S7.87,0,4.91,0Z"></path>
        </g>
      </g>
    </g>
  </symbol>
  <symbol fill="none" xmlns="http://www.w3.org/2000/svg" viewBox="0 0 27 22" id="mail">
    <path d="M25.8125 0.601562H1.4375C0.918945 0.601562 0.5 1.02051 0.5 1.53906V20.2891C0.5 20.8076 0.918945 21.2266 1.4375 21.2266H25.8125C26.3311 21.2266 26.75 20.8076 26.75 20.2891V1.53906C26.75 1.02051 26.3311 0.601562 25.8125 0.601562ZM24.6406 3.84766V19.1172H2.60938V3.84766L1.80078 3.21777L2.95215 1.73828L4.20605 2.71387H23.0469L24.3008 1.73828L25.4521 3.21777L24.6406 3.84766ZM23.0469 2.71094L13.625 10.0352L4.20312 2.71094L2.94922 1.73535L1.79785 3.21484L2.60645 3.84473L12.6143 11.626C12.9021 11.8496 13.2561 11.9709 13.6206 11.9709C13.9851 11.9709 14.3391 11.8496 14.627 11.626L24.6406 3.84766L25.4492 3.21777L24.2979 1.73828L23.0469 2.71094Z" fill="#FF5722"></path>
  </symbol>
  <symbol fill="none" xmlns="http://www.w3.org/2000/svg" viewBox="0 0 16 27" id="phone">
    <path d="M12.2223 0.675049H3.33346C1.48901 0.675049 0.00012207 2.22689 0.00012207 4.14931V22.6787C0.00012207 24.6012 1.48901 26.153 3.33346 26.153H12.2223C14.0668 26.153 15.5557 24.6012 15.5557 22.6787V4.14931C15.5557 2.22689 14.0668 0.675049 12.2223 0.675049ZM10.0001 23.8368H5.55568V22.6787H10.0001V23.8368ZM13.6112 20.3625H1.94457V4.14931H13.6112V20.3625Z" fill="#FF5722"></path>
  </symbol>
  <symbol xmlns="http://www.w3.org/2000/svg" viewBox="0 0 102 22" id="tapsi-logo-white">
    <g fill="#FFF" fill-rule="evenodd">
      <path d="M102 5.946h-3.222v4.28H91.8v-4.28h-3.221v4.28h-5.637a1.878 1.878 0 0 1-1.879-1.872V5.946h-3.221v2.408a1.878 1.878 0 0 1-1.879 1.873 1.878 1.878 0 0 1-1.879-1.873V5.946h-3.221v2.408a1.878 1.878 0 0 1-1.879 1.873h-1.879V5.946h-3.22v4.28h-17.18v3.212h3.758v.535c0 2.656-2.167 4.816-4.831 4.816-2.664 0-4.832-2.16-4.832-4.816v-3.746H37.58v3.746c0 4.426 3.613 8.027 8.053 8.027 4.44 0 8.052-3.6 8.052-8.027v-.535H68.985a5.09 5.09 0 0 0 3.489-1.381 5.09 5.09 0 0 0 3.49 1.38 5.09 5.09 0 0 0 3.489-1.38 5.089 5.089 0 0 0 3.489 1.38H102V5.947z"></path>
      <path d="M84.702 19.297h3.854V22h3.304v-5.946h-7.158zM102 0h-6.561v2.973H102zM26.842 11.297H10.737V5.946h16.105zM26.842 22H0v-5.351h26.842z"></path>
    </g>
  </symbol>
  <symbol xmlns="http://www.w3.org/2000/svg" viewBox="0 0 23 19" id="telegram">
    <path fill="#ABABAB" d="M9.025 12.522l-.38 5.305c.544 0 .78-.232 1.062-.51l2.552-2.418 5.289 3.84c.97.535 1.653.253 1.914-.885L22.934 1.73C23.243.307 22.417-.249 21.472.1L1.068 7.844C-.325 8.38-.304 9.15.83 9.498l5.216 1.609L18.164 3.59c.57-.374 1.089-.167.662.207l-9.801 8.724z"></path>
  </symbol>
  <symbol fill="none" xmlns="http://www.w3.org/2000/svg" viewBox="0 0 35 28" id="TW">
    <path d="M34.1449 3.27758C32.9201 3.80592 31.5873 4.18617 30.2144 4.33426C31.6398 3.48746 32.7072 2.14964 33.2163 0.571823C31.8788 1.3675 30.4135 1.92544 28.8855 2.22089C28.2469 1.53816 27.4745 0.994256 26.6165 0.623086C25.7584 0.251916 24.8332 0.0614281 23.8983 0.0634932C20.1158 0.0634932 17.0739 3.12948 17.0739 6.89192C17.0739 7.42027 17.1379 7.94861 17.242 8.45694C11.5783 8.16075 6.52702 5.45499 3.16884 1.3123C2.55695 2.35744 2.23629 3.54746 2.24024 4.75854C2.24024 7.12808 3.44502 9.21743 5.28221 10.4462C4.19953 10.4036 3.1422 10.106 2.19621 9.57767V9.66172C2.19621 12.9799 4.54173 15.7297 7.66776 16.3621C7.08082 16.5145 6.47702 16.5925 5.8706 16.5942C5.42631 16.5942 5.00604 16.5502 4.58176 16.4902C5.44632 19.1959 7.96395 21.1612 10.9619 21.2252C8.61638 23.0624 5.67847 24.1431 2.4884 24.1431C1.91603 24.1431 1.38769 24.1231 0.839333 24.0591C3.8653 26.0003 7.45563 27.121 11.3221 27.121C23.8743 27.121 30.7427 16.7223 30.7427 7.69645C30.7427 7.40025 30.7427 7.10406 30.7227 6.80787C32.0516 5.83524 33.2163 4.63046 34.1449 3.27758Z" fill="#FF5722"></path>
  </symbol>
  <symbol xmlns="http://www.w3.org/2000/svg" viewBox="0 0 23 19" id="twitter">
    <path fill="#ababab" fill-rule="nonzero" d="M22.857 2.627a9.77 9.77 0 0 1-2.7.74A4.66 4.66 0 0 0 22.22.777a9.365 9.365 0 0 1-2.972 1.134 4.684 4.684 0 0 0-8.106 3.204c0 .372.032.73.109 1.07-3.896-.19-7.343-2.058-9.659-4.902A4.718 4.718 0 0 0 .95 3.65c0 1.623.836 3.062 2.081 3.895a4.628 4.628 0 0 1-2.117-.577v.051a4.707 4.707 0 0 0 3.755 4.604 4.677 4.677 0 0 1-1.229.155c-.3 0-.603-.018-.887-.08.607 1.855 2.33 3.22 4.378 3.264a9.415 9.415 0 0 1-5.81 1.998c-.384 0-.752-.017-1.121-.064A13.192 13.192 0 0 0 7.189 19c8.622 0 13.337-7.143 13.337-13.334 0-.207-.007-.407-.017-.606a9.348 9.348 0 0 0 2.348-2.433z"></path>
  </symbol>
</svg>